<?xml version="1.0" encoding="UTF-8"?>
<svg xmlns="http://www.w3.org/2000/svg" viewBox="0 0 24 24" width="24" height="24">
    <defs>
        <linearGradient id="pythonGradient1" x1="0%" y1="0%" x2="100%" y2="100%">
            <stop offset="0%" style="stop-color:#306998;stop-opacity:1" />
            <stop offset="100%" style="stop-color:#FFD43B;stop-opacity:1" />
        </linearGradient>
        <linearGradient id="pythonGradient2" x1="0%" y1="0%" x2="100%" y2="100%">
            <stop offset="0%" style="stop-color:#FFD43B;stop-opacity:1" />
            <stop offset="100%" style="stop-color:#306998;stop-opacity:1" />
        </linearGradient>
    </defs>
    <path d="M12 2C6.48 2 2 6.48 2 12s4.48 10 10 10 10-4.48 10-10S17.52 2 12 2zm0 18c-4.41 0-8-3.59-8-8s3.59-8 8-8 8 3.59 8 8-3.59 8-8 8z" fill="url(#pythonGradient1)"/>
    <circle cx="8" cy="8" r="2" fill="#FFD43B"/>
    <circle cx="16" cy="16" r="2" fill="#306998"/>
    <path d="M8 12 L12 8 L16 12 L12 16 Z" fill="url(#pythonGradient2)"/>
    <text x="12" y="20" font-family="Arial" font-size="3" fill="white" text-anchor="middle">PY</text>
</svg>