<?xml version="1.0" encoding="UTF-8"?>
<svg xmlns="http://www.w3.org/2000/svg" viewBox="0 0 24 24" width="24" height="24">
    <defs>
        <linearGradient id="twitterGradient" x1="0%" y1="0%" x2="100%" y2="100%">
            <stop offset="0%" style="stop-color:#D4AF37;stop-opacity:1" />
            <stop offset="100%" style="stop-color:#22D3EE;stop-opacity:1" />
        </linearGradient>
    </defs>
    <path d="M22 4.5C21.3 4.8 20.6 5 19.8 5.1C20.6 4.6 21.2 3.8 21.5 2.9C20.8 3.4 20 3.7 19.1 3.9C18.4 3.1 17.4 2.6 16.3 2.6C14.1 2.6 12.4 4.4 12.4 6.6C12.4 6.9 12.4 7.2 12.5 7.5C9.2 7.3 6.3 5.8 4.3 3.5C4 4 3.8 4.6 3.8 5.2C3.8 6.4 4.4 7.5 5.4 8.1C4.8 8.1 4.2 7.9 3.7 7.6C3.7 9.3 4.9 10.8 6.6 11.1C6.3 11.2 6 11.3 5.6 11.3C5.4 11.3 5.1 11.3 4.9 11.2C5.4 12.6 6.7 13.6 8.2 13.6C7 14.5 5.5 15 3.9 15C3.6 15 3.3 15 3 14.9C4.5 15.9 6.3 16.5 8.2 16.5C16.3 16.5 20.7 9.9 20.7 4.2C20.7 4 20.7 3.8 20.7 3.6C21.5 3 22.1 2.3 22.5 1.5C21.8 1.9 21 2.1 20.2 2.3C21 1.8 21.6 1.1 22 0.4C21.2 0.8 20.4 1.1 19.5 1.3C18.8 0.5 17.8 0 16.7 0C14.5 0 12.6 1.9 12.6 4.2C12.6 4.5 12.6 4.8 12.7 5.1C9 4.9 5.7 3.2 3.7 0.6C3.1 1.6 2.8 2.7 2.8 3.9C2.8 6.1 4 8 5.8 9.1C5.2 9.1 4.6 8.9 4.1 8.6C4.1 10.5 5.4 12.1 7.2 12.5C6.9 12.6 6.5 12.6 6.2 12.6C5.9 12.6 5.7 12.6 5.4 12.5C6 14 7.5 15 9.2 15C7.9 15.8 6.4 16.3 4.8 16.3C4.5 16.3 4.2 16.3 3.9 16.2C5.5 17.1 7.3 17.6 9.2 17.6C16.6 17.6 20.7 11.4 20.7 5.9C20.7 5.7 20.7 5.5 20.7 5.3C21.5 4.7 22.1 4 22.5 3.2L22 4.5Z" fill="url(#twitterGradient)"/>
</svg>